<svg xmlns="http://www.w3.org/2000/svg" width="170" height="116" viewBox="0 0 170 116">
  <title>Fresh Tomatoes</title>
  <desc>Tomato icon by Fernando Affonso via https://thenounproject.com/term/tomato/301551/</desc>
  <g fill="#D03535" fill-rule="evenodd" transform="translate(-1)">
    <path d="M1.776 115V92.216h9.728v3.072H5.04v6.912h5.632v3.072H5.04V115H1.776zM16.88 95.288v7.104h1.856c.576 0 1.035-.08 1.376-.24.341-.16.608-.39.8-.688.17-.299.288-.667.352-1.104.064-.437.096-.944.096-1.52 0-.576-.032-1.083-.096-1.52a3.042 3.042 0 0 0-.384-1.136c-.405-.597-1.173-.896-2.304-.896H16.88zM13.616 115V92.216h5.248c3.84 0 5.76 2.23 5.76 6.688 0 1.344-.208 2.485-.624 3.424-.416.939-1.147 1.696-2.192 2.272l3.52 10.4h-3.456l-3.04-9.728H16.88V115h-3.264zm13.632 0V92.216h9.728v3.072h-6.464v6.688h5.632v3.072h-5.632v6.688h6.464V115h-9.728zm22.4-16.224h-3.264v-.736c0-.747-.176-1.392-.528-1.936-.352-.544-.944-.816-1.776-.816-.448 0-.81.085-1.088.256-.277.17-.501.384-.672.64-.17.277-.288.592-.352.944s-.096.72-.096 1.104c0 .448.016.821.048 1.12.032.299.112.565.24.8.128.235.315.437.56.608.245.17.581.341 1.008.512l2.496.992c.725.277 1.312.603 1.76.976.448.373.8.805 1.056 1.296.235.512.395 1.093.48 1.744.085.65.128 1.392.128 2.224 0 .96-.096 1.85-.288 2.672-.192.821-.501 1.52-.928 2.096a4.606 4.606 0 0 1-1.76 1.408c-.725.341-1.61.512-2.656.512a5.81 5.81 0 0 1-2.208-.416 5.252 5.252 0 0 1-1.76-1.152 5.606 5.606 0 0 1-1.168-1.712 5.198 5.198 0 0 1-.432-2.128v-1.216h3.264v1.024c0 .597.176 1.136.528 1.616.352.48.944.72 1.776.72.555 0 .987-.08 1.296-.24.31-.16.55-.39.72-.688.17-.299.272-.656.304-1.072.032-.416.048-.88.048-1.392 0-.597-.021-1.088-.064-1.472-.043-.384-.128-.693-.256-.928a1.8 1.8 0 0 0-.592-.576c-.245-.15-.57-.31-.976-.48l-2.336-.96c-1.408-.576-2.352-1.339-2.832-2.288-.48-.95-.72-2.139-.72-3.568 0-.853.117-1.664.352-2.432a5.532 5.532 0 0 1 1.056-1.984 4.84 4.84 0 0 1 1.712-1.328c.693-.33 1.52-.496 2.48-.496.81 0 1.552.15 2.224.448a5.729 5.729 0 0 1 1.744 1.184c.981 1.024 1.472 2.197 1.472 3.52v1.6zM52.08 115V92.216h3.264v9.76h4.032v-9.76h3.264V115h-3.264v-10.144h-4.032V115H52.08zm21.728 0V95.288h-3.776v-3.072h10.816v3.072h-3.776V115h-3.264zm7.904-17.408c0-.917.16-1.728.48-2.432a5.14 5.14 0 0 1 1.28-1.76 5.411 5.411 0 0 1 1.744-1.024 5.764 5.764 0 0 1 1.968-.352c.661 0 1.317.117 1.968.352a5.8 5.8 0 0 1 1.776 1.024c.512.47.928 1.056 1.248 1.76.32.704.48 1.515.48 2.432v12.032c0 .96-.16 1.781-.48 2.464a5.083 5.083 0 0 1-1.248 1.696 5.487 5.487 0 0 1-1.776 1.056 5.764 5.764 0 0 1-1.968.352 5.764 5.764 0 0 1-1.968-.352 5.135 5.135 0 0 1-1.744-1.056 4.885 4.885 0 0 1-1.28-1.696c-.32-.683-.48-1.504-.48-2.464V97.592zm3.264 12.032c0 .79.219 1.37.656 1.744.437.373.955.56 1.552.56.597 0 1.115-.187 1.552-.56.437-.373.656-.955.656-1.744V97.592c0-.79-.219-1.37-.656-1.744a2.314 2.314 0 0 0-1.552-.56c-.597 0-1.115.187-1.552.56-.437.373-.656.955-.656 1.744v12.032zM95.536 115V92.216h3.136l4.192 12.064h.064l4.16-12.064h3.168V115h-3.264v-13.856h-.064l-3.232 9.792h-1.632l-3.2-9.792H98.8V115h-3.264zm24.384-7.968l-1.6-8.256h-.064l-1.6 8.256h3.264zM111.856 115l5.088-22.784h2.72L124.752 115h-3.264l-.96-4.896h-4.448l-.96 4.896h-3.264zm14.88 0V95.288h-3.776v-3.072h10.816v3.072H130V115h-3.264zm7.904-17.408c0-.917.16-1.728.48-2.432a5.14 5.14 0 0 1 1.28-1.76 5.411 5.411 0 0 1 1.744-1.024 5.764 5.764 0 0 1 1.968-.352c.661 0 1.317.117 1.968.352a5.8 5.8 0 0 1 1.776 1.024c.512.47.928 1.056 1.248 1.76.32.704.48 1.515.48 2.432v12.032c0 .96-.16 1.781-.48 2.464a5.083 5.083 0 0 1-1.248 1.696 5.487 5.487 0 0 1-1.776 1.056 5.764 5.764 0 0 1-1.968.352 5.764 5.764 0 0 1-1.968-.352 5.135 5.135 0 0 1-1.744-1.056 4.885 4.885 0 0 1-1.28-1.696c-.32-.683-.48-1.504-.48-2.464V97.592zm3.264 12.032c0 .79.219 1.37.656 1.744.437.373.955.56 1.552.56.597 0 1.115-.187 1.552-.56.437-.373.656-.955.656-1.744V97.592c0-.79-.219-1.37-.656-1.744a2.314 2.314 0 0 0-1.552-.56c-.597 0-1.115.187-1.552.56-.437.373-.656.955-.656 1.744v12.032zm10.56 5.376V92.216h9.728v3.072h-6.464v6.688h5.632v3.072h-5.632v6.688h6.464V115h-9.728zm22.4-16.224H167.6v-.736c0-.747-.176-1.392-.528-1.936-.352-.544-.944-.816-1.776-.816-.448 0-.81.085-1.088.256-.277.17-.501.384-.672.64-.17.277-.288.592-.352.944s-.096.72-.096 1.104c0 .448.016.821.048 1.12.032.299.112.565.24.8.128.235.315.437.56.608.245.17.581.341 1.008.512l2.496.992c.725.277 1.312.603 1.76.976.448.373.8.805 1.056 1.296.235.512.395 1.093.48 1.744.085.65.128 1.392.128 2.224 0 .96-.096 1.85-.288 2.672-.192.821-.501 1.52-.928 2.096a4.606 4.606 0 0 1-1.76 1.408c-.725.341-1.61.512-2.656.512a5.81 5.81 0 0 1-2.208-.416 5.252 5.252 0 0 1-1.76-1.152 5.606 5.606 0 0 1-1.168-1.712 5.198 5.198 0 0 1-.432-2.128v-1.216h3.264v1.024c0 .597.176 1.136.528 1.616.352.48.944.72 1.776.72.555 0 .987-.08 1.296-.24.31-.16.55-.39.72-.688.17-.299.272-.656.304-1.072.032-.416.048-.88.048-1.392 0-.597-.021-1.088-.064-1.472-.043-.384-.128-.693-.256-.928a1.8 1.8 0 0 0-.592-.576c-.245-.15-.57-.31-.976-.48l-2.336-.96c-1.408-.576-2.352-1.339-2.832-2.288-.48-.95-.72-2.139-.72-3.568 0-.853.117-1.664.352-2.432a5.532 5.532 0 0 1 1.056-1.984 4.84 4.84 0 0 1 1.712-1.328c.693-.33 1.52-.496 2.48-.496.81 0 1.552.15 2.224.448a5.729 5.729 0 0 1 1.744 1.184c.981 1.024 1.472 2.197 1.472 3.52v1.6z"/>
    <path fill-rule="nonzero" d="M120.945 19.991c-4.579-4.567-10.797-7.245-18.12-7.838l.575-3.125a2.051 2.051 0 0 0-2.49-2.364l-9.823 2.335-.373-6.219A2.049 2.049 0 0 0 88.669.853h-5.34a2.05 2.05 0 0 0-2.046 1.927L80.9 9.202 70.445 6.91a2.048 2.048 0 0 0-2.437 2.454l.657 2.901c-7.058.392-13.083 2.886-17.545 7.289-5.622 5.549-8.594 13.814-8.594 23.9C42.525 64.471 60.403 79.146 86 79.146c25.598 0 43.475-14.678 43.475-35.692 0-9.784-2.95-17.897-8.53-23.463zm-40.293-6.648l-.234 3.902a2.049 2.049 0 1 0 4.091.245l.751-12.538h1.479l.751 12.538a2.049 2.049 0 1 0 4.092-.244l-.246-4.093 7.467-1.774-.992 5.392a2.05 2.05 0 0 0 .84 2.048l4.223 2.959-10.34 1.483a2.052 2.052 0 0 0-1.363.818l-5.031 6.879-5.285-6.795a2.05 2.05 0 0 0-1.363-.776l-10.476-1.308 4.13-3.084a2.05 2.05 0 0 0 .773-2.094l-1.2-5.296 7.933 1.738zM86 75.049c-23.184 0-39.376-12.992-39.376-31.595 0-8.965 2.55-16.221 7.375-20.983 3.935-3.883 9.157-5.949 15.585-6.149l.042.185-7.141 5.333c-.67.5-.968 1.357-.754 2.166a2.048 2.048 0 0 0 1.727 1.51l14.683 1.834 6.431 8.27c.389.5.986.792 1.618.792h.03a2.049 2.049 0 0 0 1.624-.839l6.127-8.376 14.61-2.096a2.049 2.049 0 0 0 .886-3.706l-7.385-5.176v-.002c6.52.454 12.014 2.73 15.971 6.678 4.793 4.781 7.325 11.891 7.325 20.562-.002 18.6-16.194 31.592-39.378 31.592z"/>
    <path d="M119.968 48.779a2.05 2.05 0 0 1-2.043-2.25c.841-8.522-1.661-13.629-1.688-13.679a2.05 2.05 0 0 1 3.664-1.838c.125.25 3.058 6.23 2.104 15.919a2.051 2.051 0 0 1-2.037 1.848z"/>
    <circle cx="118.068" cy="53.101" r="2.27"/>
  </g>
</svg>
