<svg xmlns="http://www.w3.org/2000/svg" width="43" height="42" viewBox="0 0 43 42">
  <title>Movie</title>
  <desc>Movie icon by Focus via https://thenounproject.com/term/movie/960189/</desc>
  <path d="M20.447 42H43v-2.95H30.885C36.871 35.36 40.893 28.671 40.893 21c0-11.557-9.194-21-20.446-21C9.194 0 0 9.443 0 21s9.194 21 20.447 21zm0-39.05c9.672 0 17.573 8.116 17.573 18.05 0 9.934-7.853 18.05-17.573 18.05S2.873 30.933 2.873 21c0-9.934 7.9-18.05 17.574-18.05z"/>
  <path d="M12.977 19c1.267 0 2.582-.466 3.568-1.445A4.95 4.95 0 0 0 18 14.012c0-1.352-.516-2.564-1.455-3.543a5.012 5.012 0 0 0-7.09 0A4.95 4.95 0 0 0 8 14.012c0 1.352.516 2.564 1.455 3.543A4.993 4.993 0 0 0 12.977 19zm-1.55-6.527c.423-.42.986-.652 1.55-.652a2.22 2.22 0 0 1 1.549.652c.422.42.657.98.657 1.539 0 .56-.235 1.119-.657 1.538a2.22 2.22 0 0 1-3.099 0 2.186 2.186 0 0 1-.657-1.538c0-.606.235-1.12.657-1.539zm12.185 12.002c-2.15 1.968-2.15 5.106 0 7.073C24.686 32.532 26.067 33 27.5 33c1.381 0 2.814-.468 3.888-1.452 2.15-1.967 2.15-5.105 0-7.073-2.2-1.967-5.679-1.967-7.776 0zm5.525 5.059c-.92.843-2.456.843-3.377 0a2.075 2.075 0 0 1 0-3.091 2.522 2.522 0 0 1 1.689-.656c.614 0 1.228.234 1.688.656a2.074 2.074 0 0 1 0 3.091zM26.977 19c1.267 0 2.582-.468 3.568-1.45A4.976 4.976 0 0 0 32 13.994c0-1.357-.516-2.573-1.455-3.555-1.972-1.919-5.165-1.919-7.09 0A4.976 4.976 0 0 0 22 13.994c0 1.357.516 2.573 1.455 3.556A5.066 5.066 0 0 0 26.977 19zm-1.55-6.55a2.213 2.213 0 0 1 1.55-.655c.563 0 1.126.234 1.549.655a2.2 2.2 0 0 1 .657 1.544c0 .562-.235 1.123-.657 1.544a2.216 2.216 0 0 1-3.099 0 2.198 2.198 0 0 1-.657-1.544c0-.608.235-1.123.657-1.544zM9.612 24.475c-2.15 1.968-2.15 5.106 0 7.073C10.686 32.532 12.067 33 13.5 33c1.381 0 2.814-.468 3.888-1.452 2.15-1.967 2.15-5.105 0-7.073-2.148-1.967-5.628-1.967-7.776 0zm5.576 5.059c-.92.843-2.455.843-3.376 0a2.075 2.075 0 0 1 0-3.091 2.522 2.522 0 0 1 1.688-.656c.614 0 1.228.234 1.688.656a2.074 2.074 0 0 1 0 3.091z"/>
</svg>
